<?xml version="1.0" encoding="utf-8"?>
<!-- Generator: Adobe Illustrator 18.1.1, SVG Export Plug-In . SVG Version: 6.00 Build 0)  -->
<svg version="1.1" id="Layer_1" xmlns="http://www.w3.org/2000/svg" xmlns:xlink="http://www.w3.org/1999/xlink" x="0px" y="0px"
	 viewBox="0 0 1304.1 1200" enable-background="new 0 0 1304.1 1200" xml:space="preserve">
<g>
	<path fill="#71C493" d="M109.7,743.9l11.2-2c3.4,0,5.1,1.9,5.1,5.6c0,11.9-2.4,21.9-7.1,30.1c-4.8,8.2-10.7,13.9-17.8,17.3
		c-11.6,5.8-21.4,8.7-29.6,8.7c-15.6,0-27.4-5.9-35.2-17.6c-7.8-11.7-11.7-29.4-11.7-53c0-23.6,6.5-54.3,19.4-92H14.4
		c-3.7,0-5.6-1.9-5.6-5.6c0-3.7,2.9-9.8,8.7-18.1c5.8-8.3,11.9-12.5,18.3-12.5h22.9c24.1-53.7,52.5-100.1,85.1-139.1
		c8.5-10.2,18.9-19.7,31.3-28.5c12.4-8.8,22-13.3,28.8-13.3c6.8,0,11.9,3.1,15.3,9.2c8.8,14.3,19.2,66.4,31.1,156.5
		c4.1,38.7,11.1,78.7,21.2,120c10,41.3,19.3,65.3,27.8,72.1c2,1.4,3.1,3.1,3.1,5.1c0,5.1-7.2,9.9-21.7,14.3
		c-14.4,4.4-25.5,6.6-33.1,6.6c-7.6,0-13.5-0.9-17.6-2.8c-4.1-1.9-6.6-3.8-7.6-5.9c-6.1-13.3-12.2-44.9-18.3-94.8l-3.1-24
		c-1.4-16-2.7-28-4.1-36.2l-3.6-2.5l-106.5-0.5c-4.1,17.3-6.1,32.5-6.1,45.4c0,12.9,0.4,22.3,1.3,28.3c0.8,5.9,3.6,12.3,8.4,19.1
		C95.1,740.5,101.5,743.9,109.7,743.9z M155,503.8c-26.8,33.6-46.2,67.3-58.1,100.9h0.5c47.2,0,74.3,0.1,81.3,0.3
		c7,0.2,10.8-0.1,11.5-0.8c0.7-0.7,1.2-1.5,1.5-2.5c-5.8-41.8-10.4-70.2-13.8-85.4c-3.4-15.1-6.8-22.7-10.2-22.7
		C164.4,493.6,160.1,497,155,503.8z"/>
	<path fill="#71C493" d="M459.2,737.3c0,19.4-7.7,35.4-23.2,48.2c-15.5,12.7-33.9,19.1-55.3,19.1c-31.3,0-54.2-9.4-68.8-28.3
		c-14.6-18.9-21.9-44.4-21.9-76.7c0-34.3,7.6-64.7,22.9-91.2c7.5-13.6,18.2-24.3,32.1-32.1c13.9-7.8,30.2-11.7,48.9-11.7
		c28.2,0,48.1,9.5,59.6,28.5c4.8,7.8,7.1,17,7.1,27.5c0,16.3-6.8,28.5-20.4,36.7c-5.4,3.1-10.4,4.6-15,4.6c-4.6,0-8.3-0.3-11.2-0.8
		c-2.9-0.5-6.7-2.8-11.5-6.9c-4.8-4.1-7.1-9.7-7.1-16.8c0.3-3.7,3.2-6.8,8.7-9.2c5.1-3.1,7.6-8.5,7.6-16.3
		c0-13.3-8.2-19.9-24.5-19.9c-4.1,0-8.9,1.8-14.5,5.4c-5.6,3.6-10.3,8.2-14,13.8c-3.7,5.6-7.2,14.4-10.4,26.5
		c-3.2,12.1-4.8,23.6-4.8,34.7c0,11,0.4,19.4,1.3,25c0.8,5.6,2.7,13.3,5.6,22.9c2.9,9.7,8.3,17.6,16.3,23.7c8,6.1,17.9,9.2,29.8,9.2
		c14.3,0,26.8-5.9,37.7-17.8c4.4-4.8,8-10.5,10.7-17.3c1.4-2.7,3.1-4.1,5.1-4.1c3.1,0,5.4,2.8,6.9,8.4
		C458.4,727.8,459.2,732.9,459.2,737.3z"/>
	<path fill="#71C493" d="M478.5,597.1l1.5-20.4c0.3-3.1,2.7-4.6,7.1-4.6H505l-2-40.8v-2c0-7.8,5.9-15.3,17.8-22.4
		c11.9-7.1,22.8-10.7,32.6-10.7c3.1,0,4.6,1.4,4.6,4.1v0.5c-1.4,9.2-2.7,32.8-4.1,70.8c14.9,0,24.5-0.3,28.5-1c4.1-0.7,6.3-1,6.6-1
		c2.4,0,3.6,2,3.6,6.1c0,4.1-1.9,9.3-5.6,15.5c-3.7,6.3-7.8,9.6-12.2,9.9h-21.4c-0.3,11.6-0.5,31-0.5,58.4c0,27.4,0.3,49.9,0.8,67.5
		c0.5,17.7,1.1,31,1.8,40c0.7,9,1.4,16.2,2.3,21.7c0.8,5.4,1.5,9.3,2,11.7c0.5,2.4,0.8,3.9,0.8,4.6c0,3.4-2.2,5.3-6.6,5.6
		c-13.3,0-26.4-1.9-39.5-5.6c-13.1-3.7-19.6-10.2-19.6-19.4c7.1-57.1,10.7-118.4,10.7-184c-9.2,0-16.1,0.3-20.9,1h-0.5
		C481.1,602.7,479.2,600.9,478.5,597.1z"/>
	<path fill="#71C493" d="M612.1,780.6l5.6-118.8c0-28.2-3.2-47.4-9.7-57.6c-2-3.4-4.4-5.9-7.1-7.6c-2-0.7-3.1-2-3.1-4.1
		c0-6.1,8.7-12.1,26-17.8c17.3-5.8,30-8.7,38-8.7c8,0,12.1,2,12.5,6.1c0,6.8-0.9,26.1-2.8,57.8c-1.9,31.8-2.8,65.2-2.8,100.2
		c0,35,2,56.8,6.1,65.2c1,1.7,1.5,3.4,1.5,5.1c0,4.4-6.5,6.6-19.4,6.6c-12.9,0-26.2-3.4-39.8-10.2
		C613.7,795.2,612.1,789.8,612.1,780.6z M652.8,523.2l-12.2-0.5c-9.2,0-15.1,2.2-17.8,6.6c-0.7,1-1.5,1.5-2.5,1.5
		c-4.4,0-6.6-7.6-6.6-22.7c0-15.1,2.3-24.7,6.9-28.8c4.6-4.1,12.6-6.1,24-6.1c11.4,0,19.1,2,23.2,5.9c4.1,3.9,6.1,10.4,6.1,19.6
		s-1.5,15.5-4.6,19.1C666.1,521.4,660.6,523.2,652.8,523.2z"/>
	<path fill="#71C493" d="M822.3,575.7c14.4-7.1,28.8-10.7,43.1-10.7s21.4,14.8,21.4,44.3c0,21.7-4,43.8-12,66.3
		c-8,22.4-17.9,42.1-29.8,59.1c-24.5,35.7-46.6,59.5-66.3,71.4c-4.8,2.7-8.3,4.1-10.7,4.1c-2.4,0-4.8-2.5-7.4-7.6
		s-6.5-16.3-11.7-33.6c-5.3-17.3-9.6-32.8-13-46.4l-4.6-20.9c-6.8-29.9-13.4-53.8-19.9-71.6c-6.5-17.8-11.2-28.1-14.3-30.8l-5.1-4.6
		c-3.4-1.7-5.1-3.7-5.1-6.1l2.5-4.6c4.4-4.1,11.8-8.2,22.2-12.5c10.4-4.2,21.8-6.4,34.4-6.4c5.8,0,9.3,3.2,10.7,9.7
		c5.1,15.6,9.5,34,13.3,55c3.7,21.1,8.7,44.9,15,71.4c6.3,26.5,11.5,39.9,15.5,40.3c2,0,4.3-1.5,6.9-4.6c2.5-3.1,5.6-7.1,9.2-12.2
		c3.6-5.1,8-14.9,13.3-29.6c5.3-14.6,7.9-27.1,7.9-37.5c0-10.4-0.4-18.3-1.3-24c-0.9-5.6-3.8-12.1-8.9-19.6
		c-5.1-7.5-10.9-11.8-17.3-13c-6.5-1.2-9.7-3.3-9.7-6.4C800.6,589.1,807.8,582.8,822.3,575.7z"/>
	<path fill="#71C493" d="M1064.1,734.2c0,12.9-2.6,24.2-7.9,33.9c-5.3,9.7-11.2,16.8-17.8,21.4s-14.4,8.2-23.2,11
		c-11.2,3.4-21.9,5.1-32.1,5.1c-28.5,0-49.6-10.7-63.2-32.1c-13.6-21.4-20.4-48.7-20.4-81.8c0-33.1,8.4-62.6,25.2-88.4
		c16.8-25.8,42-38.7,75.7-38.7c30.6,0,51.3,10.7,62.2,32.1c4.4,8.2,6.6,15.9,6.6,23.2c0,7.3-0.3,13.1-1,17.3
		c-0.7,4.3-3.1,10.6-7.1,19.1c-4.1,8.5-9.5,16.1-16.3,22.9c-6.8,6.8-17.5,13.3-32.1,19.4c-14.6,6.1-31.8,10.2-51.5,12.2
		c-2.7,0-4.1,1.2-4.1,3.6c0,3.1,1.1,7.6,3.3,13.5c2.2,5.9,4.7,11,7.4,15c7.5,9.5,18.5,14.3,33.1,14.3c14.6,0,27-4.8,37.2-14.3
		c5.4-5.1,9.9-11.4,13.3-18.9c1.4-2.7,3.1-4.1,5.4-4.1c2.2,0,4,1.9,5.4,5.6C1063.4,729.3,1064.1,732.2,1064.1,734.2z M953,666.4
		l0.5,12.7c0,2,1.4,3.1,4.1,3.1c10.9-1,20.4-3.8,28.5-8.4c8.2-4.6,14.3-9.8,18.3-15.5c8.2-12.6,12.6-23.4,13.3-32.6l0.5-6.1
		c0-18.3-7.3-27.5-21.9-27.5c-10.9,0-19.7,4.8-26.5,14.3C958.6,621.2,953,641.3,953,666.4z"/>
	<path fill="#71C493" d="M1132,603.7c-8.8,0.3-15.2,0.6-19.1,0.8c-3.9,0.2-5.9-0.8-5.9-2.8c0-2,1-4.1,3.1-6.1
		c21.7-20,58.4-30.1,110.1-30.1c17.7,0,31.6,1.5,41.8,4.6l5.1,1.5c4.1,1.7,6.1,3.6,6.1,5.6c0,1.7-1.2,3.1-3.6,4.1
		c-9.2,2.7-18,7.1-26.5,13c-8.5,5.9-12.7,10.1-12.7,12.5l3.1,3.6c10.9,6.1,19.3,15.8,25.2,29.1c5.9,13.3,9.3,25,9.9,35.2l1,15.8
		c0,33.6-9.3,61.3-28,83.1c-18.7,21.7-44.2,32.6-76.5,32.6c-16.3,0-30.4-2.9-42.3-8.7c-11.9-5.8-20.6-12.3-26.2-19.6
		c-5.6-7.3-10.1-15.5-13.5-24.7c-4.1-12.6-6.1-25.6-6.1-39c0-13.4,2.3-26.9,6.9-40.5c4.6-13.6,9.9-23.6,15.8-30.1
		c5.9-6.5,12.7-11.7,20.1-15.8c9.5-5.1,17.2-7.6,22.9-7.6c5.8,0,8.7,1.2,8.7,3.6l-3.1,5.1c-7.5,8.8-12.8,20.4-16.1,34.7
		c-3.2,14.3-4.8,26.9-4.8,38c0,11,1.4,22,4.1,32.9c2.7,10.9,5.8,18.9,9.2,24.2c3.4,5.3,7.3,9.3,11.7,12c6.5,4.1,13.3,6.1,20.4,6.1
		s14.1-2.8,20.9-8.4c6.8-5.6,11.7-13,14.8-22.2c6.1-17,9.2-34.5,9.2-52.5c0-28.5-7.2-50.6-21.7-66.3
		C1181.5,611.6,1160.2,603.7,1132,603.7z"/>
</g>
</svg>
